<?xml version="1.0" encoding="UTF-8"?>
<svg version="1.1" xmlns="http://www.w3.org/2000/svg" width="32" height="32">
<path d="M0 0 C3.25 2.25 3.25 2.25 5 5 C4.8125 7.3125 4.8125 7.3125 4 9 C2.25 9.75 2.25 9.75 0 10 C-2.25 8.0625 -2.25 8.0625 -4 6 C-7.24983135 7.08784968 -7.24983135 7.08784968 -10 9 C-10.25005386 11.95817107 -10.25005386 11.95817107 -10 15 C-8.12061828 17.29827312 -8.12061828 17.29827312 -5.0625 17.3125 C-2.00251018 17.27988518 -2.00251018 17.27988518 -0.125 15.5 C0.24625 15.005 0.6175 14.51 1 14 C2.65 14.66 4.3 15.32 6 16 C4.71807512 19.9526017 3.54990635 21.82646085 0 24 C-4.06541625 24.80503292 -8.23956421 24.95254041 -11.94921875 22.9453125 C-14.09688687 21.18765675 -15.75339994 19.49320013 -17 17 C-17.42526125 12.37937295 -17.56310381 8.28709443 -15.6875 4 C-11.37474752 -1.11141035 -6.2309049 -0.89921222 0 0 Z " fill="#000000" transform="translate(17,4)"/>
<path d="M0 0 C2.6875 0.875 2.6875 0.875 5 2 C5.04254356 3.99954746 5.04080783 6.00041636 5 8 C4 9 4 9 1 9.125 C-2 9 -2 9 -3 8 C-3.25 5.0625 -3.25 5.0625 -3 2 C-2.01 1.34 -1.02 0.68 0 0 Z " fill="#000000" transform="translate(27,19)"/>
</svg>
